<?xml version="1.0" encoding="UTF-8"?>
<svg width="449px" height="301px" viewBox="0 0 449 301" version="1.1" xmlns="http://www.w3.org/2000/svg" xmlns:xlink="http://www.w3.org/1999/xlink">
    <title>Books</title>
    <defs>
        <polygon id="path-1" points="0 300.422 448.307 300.422 448.307 0 0 0"></polygon>
    </defs>
    <g id="Icons" stroke="none" stroke-width="1" fill="none" fill-rule="evenodd">
        <g id="Color-Images" transform="translate(-1865.000000, -486.000000)">
            <g id="Books" transform="translate(1865.000000, 486.000000)">
                <path d="M233.8757,39.1679 L133.7217,39.1679 C128.3027,39.1679 123.9097,34.7749 123.9097,29.3559 L123.9097,12.0279 C123.9097,6.6089 128.3027,2.2159 133.7217,2.2159 L233.8757,2.2159 L233.8757,39.1679 Z" id="Fill-1" fill="#FF9E47"></path>
                <path d="M227.2443,10.8876 L227.2443,2.2166 L133.1303,2.2166 C128.2233,2.2166 124.2233,6.0526 123.9373,10.8876 L227.2443,10.8876 Z" id="Fill-3" fill="#FFF8DC"></path>
                <path d="M111.259,90.2333 L155.997,90.2333 L155.997,39.0133 L111.259,39.0133 C97.257,39.0133 85.905,50.3653 85.905,64.3673 L85.905,64.8793 C85.905,78.8823 97.257,90.2333 111.259,90.2333" id="Fill-5" fill="#007662"></path>
                <path d="M111.259,90.2333 L155.997,90.2333 L155.997,39.0133 L111.259,39.0133 C97.257,39.0133 85.905,50.3653 85.905,64.3673 L85.905,64.8793 C85.905,78.8823 97.257,90.2333 111.259,90.2333 Z" id="Stroke-7" stroke="#2B3554" stroke-width="4" stroke-linecap="round" stroke-linejoin="round"></path>
                <path d="M233.8757,39.1679 L133.7217,39.1679 C128.3027,39.1679 123.9097,34.7749 123.9097,29.3559 L123.9097,12.0279 C123.9097,6.6089 128.3027,2.2159 133.7217,2.2159 L233.8757,2.2159 L233.8757,39.1679 Z" id="Stroke-9" stroke="#2B3554" stroke-width="4" stroke-linecap="round" stroke-linejoin="round"></path>
                <path d="M155.9972,49.5883 L155.9972,39.0133 L111.2592,39.0133 C102.7782,39.0133 95.2892,43.1933 90.6872,49.5883 L155.9972,49.5883 Z" id="Fill-11" fill="#00D9AA"></path>
                <mask id="mask-2" fill="white">
                    <use xlink:href="#path-1"></use>
                </mask>
                <g id="Clip-14"></g>
                <polygon id="Fill-13" fill="#FFFFFF" mask="url(#mask-2)" points="170.425 31.992 311.732 31.992 311.732 7.946 170.425 7.946"></polygon>
                <polygon id="Stroke-15" stroke="#2B3554" stroke-width="4" stroke-linecap="round" stroke-linejoin="round" mask="url(#mask-2)" points="170.425 31.992 311.732 31.992 311.732 7.946 170.425 7.946"></polygon>
                <path d="M111.259,90.2333 L155.997,90.2333 L155.997,39.0133 L111.259,39.0133 C97.257,39.0133 85.905,50.3653 85.905,64.3673 L85.905,64.8793 C85.905,78.8823 97.257,90.2333 111.259,90.2333 Z" id="Stroke-16" stroke="#2B3554" stroke-width="4" stroke-linecap="round" stroke-linejoin="round" mask="url(#mask-2)"></path>
                <path d="M336.3893,43.8774 C336.3893,41.2764 334.2803,39.1684 331.6803,39.1684 L152.5403,39.1684 C142.1253,39.1684 129.9123,50.4844 129.9123,64.4454 L129.9123,64.9564 C129.9123,78.9164 142.1253,90.2334 152.5403,90.2334 L331.6803,90.2334 C334.2803,90.2334 336.3893,88.1254 336.3893,85.5234 L336.3893,85.4284 C336.3893,82.8284 334.2803,80.7194 331.6803,80.7194 L156.3613,80.7194 L156.3613,48.6824 L331.6803,48.6824 C334.2803,48.6824 336.3893,46.5734 336.3893,43.9724 L336.3893,43.8774 Z" id="Fill-17" fill="#00D9AA" mask="url(#mask-2)"></path>
                <path d="M336.3893,43.8774 C336.3893,41.2764 334.2803,39.1684 331.6803,39.1684 L152.5403,39.1684 C142.1253,39.1684 129.9123,50.4844 129.9123,64.4454 L129.9123,64.9564 C129.9123,78.9164 142.1253,90.2334 152.5403,90.2334 L331.6803,90.2334 C334.2803,90.2334 336.3893,88.1254 336.3893,85.5234 L336.3893,85.4284 C336.3893,82.8284 334.2803,80.7194 331.6803,80.7194 L156.3613,80.7194 L156.3613,48.6824 L331.6803,48.6824 C334.2803,48.6824 336.3893,46.5734 336.3893,43.9724 L336.3893,43.8774 Z" id="Stroke-18" stroke="#2B3554" stroke-width="4" stroke-linecap="round" stroke-linejoin="round" mask="url(#mask-2)"></path>
                <path d="M330.6042,80.7197 L156.3612,80.7197 C147.6022,80.7197 140.5022,73.6187 140.5022,64.8607 L140.5022,64.5407 C140.5022,55.7827 147.6022,48.6817 156.3612,48.6817 L330.6042,48.6817 L330.5562,48.8427 C321.0502,59.2707 321.0502,70.5787 330.5562,80.5597 L330.6042,80.7197 Z" id="Fill-19" fill="#FFFFFF" mask="url(#mask-2)"></path>
                <path d="M325.3463,56.5185 C326.5333,53.9295 328.2613,51.3595 330.5563,48.8425 L330.6043,48.6815 L156.3613,48.6815 C150.5333,48.6815 145.4533,51.8345 142.6973,56.5185" id="Fill-20" fill="#EFEFEF" mask="url(#mask-2)"></path>
                <path d="M317.6095,6.7089 C317.6095,4.1079 315.5015,1.9999 312.9005,1.9999 L174.1965,1.9999 C169.0585,1.9999 164.8935,6.1649 164.8935,11.3029 L164.8935,29.8649 C164.8935,35.0029 169.0585,39.1679 174.1965,39.1679 L312.9005,39.1679 C315.5015,39.1679 317.6095,37.0599 317.6095,34.4589 L317.6095,34.3639 C317.6095,31.7629 315.5015,29.6539 312.9005,29.6539 L178.0415,29.6539 C176.3005,29.6539 174.8905,28.2439 174.8905,26.5029 L174.8905,14.6649 C174.8905,12.9239 176.3005,11.5139 178.0415,11.5139 L312.9005,11.5139 C315.5015,11.5139 317.6095,9.4049 317.6095,6.8039 L317.6095,6.7089 Z" id="Fill-21" fill="#00C5F8" mask="url(#mask-2)"></path>
                <path d="M317.6095,6.7089 C317.6095,4.1079 315.5015,1.9999 312.9005,1.9999 L174.1965,1.9999 C169.0585,1.9999 164.8935,6.1649 164.8935,11.3029 L164.8935,29.8649 C164.8935,35.0029 169.0585,39.1679 174.1965,39.1679 L312.9005,39.1679 C315.5015,39.1679 317.6095,37.0599 317.6095,34.4589 L317.6095,34.3639 C317.6095,31.7629 315.5015,29.6539 312.9005,29.6539 L178.0415,29.6539 C176.3005,29.6539 174.8905,28.2439 174.8905,26.5029 L174.8905,14.6649 C174.8905,12.9239 176.3005,11.5139 178.0415,11.5139 L312.9005,11.5139 C315.5015,11.5139 317.6095,9.4049 317.6095,6.8039 L317.6095,6.7089 Z" id="Fill-22" fill="#FFDE97" mask="url(#mask-2)"></path>
                <path d="M317.6095,6.7089 C317.6095,4.1079 315.5015,1.9999 312.9005,1.9999 L174.1965,1.9999 C169.0585,1.9999 164.8935,6.1649 164.8935,11.3029 L164.8935,29.8649 C164.8935,35.0029 169.0585,39.1679 174.1965,39.1679 L312.9005,39.1679 C315.5015,39.1679 317.6095,37.0599 317.6095,34.4589 L317.6095,34.3639 C317.6095,31.7629 315.5015,29.6539 312.9005,29.6539 L178.0415,29.6539 C176.3005,29.6539 174.8905,28.2439 174.8905,26.5029 L174.8905,14.6649 C174.8905,12.9239 176.3005,11.5139 178.0415,11.5139 L312.9005,11.5139 C315.5015,11.5139 317.6095,9.4049 317.6095,6.8039 L317.6095,6.7089 Z" id="Stroke-23" stroke="#40515D" stroke-width="4" stroke-linecap="round" stroke-linejoin="round" mask="url(#mask-2)"></path>
                <line x1="182.8766" y1="20.5839" x2="309.4946" y2="20.5839" id="Stroke-24" stroke="#2B3554" stroke-width="4" stroke-linecap="round" stroke-linejoin="round" mask="url(#mask-2)"></line>
                <path d="M330.6042,80.7197 L156.3612,80.7197 C147.6022,80.7197 140.5022,73.6187 140.5022,64.8607 L140.5022,64.5407 C140.5022,55.7827 147.6022,48.6817 156.3612,48.6817 L330.6042,48.6817 L330.5562,48.8427 C321.0502,59.2707 321.0502,70.5787 330.5562,80.5597 L330.6042,80.7197 Z" id="Stroke-25" stroke="#2B3554" stroke-width="4" stroke-linecap="round" stroke-linejoin="round" mask="url(#mask-2)"></path>
                <path d="M155.3014,48.7353 C147.0394,49.2823 140.5024,56.1393 140.5024,64.5403 L140.5024,64.8603 C140.5024,73.2613 147.0394,80.1183 155.3014,80.6663 C142.1084,80.6663 142.1084,48.7353 155.3014,48.7353" id="Fill-26" fill="#ADC1D0" mask="url(#mask-2)"></path>
                <path d="M155.3014,48.7353 C147.0394,49.2823 140.5024,56.1393 140.5024,64.5403 L140.5024,64.8603 C140.5024,73.2613 147.0394,80.1183 155.3014,80.6663 C142.1084,80.6663 142.1084,48.7353 155.3014,48.7353 Z" id="Stroke-27" stroke="#2B3554" stroke-width="4" stroke-linecap="round" stroke-linejoin="round" mask="url(#mask-2)"></path>
                <line x1="321.5387" y1="65.3393" x2="305.4627" y2="65.3393" id="Stroke-28" stroke="#2B3554" stroke-width="2.4" stroke-linecap="round" stroke-linejoin="round" mask="url(#mask-2)"></line>
                <polygon id="Fill-29" fill="#00BCFB" mask="url(#mask-2)" points="278.4757 20.5839 278.4757 53.5789 283.6227 48.7749 288.7697 53.5789 288.7697 20.5839"></polygon>
                <polygon id="Stroke-30" stroke="#2B3554" stroke-width="4" mask="url(#mask-2)" points="278.4757 20.5839 278.4757 53.5789 283.6227 48.7749 288.7697 53.5789 288.7697 20.5839"></polygon>
                <path d="M73.2018,298.4218 L134.5508,298.4218 L134.5508,228.1848 L73.2018,228.1848 C54.0008,228.1848 38.4348,243.7508 38.4348,262.9518 L38.4348,263.6548 C38.4348,282.8568 54.0008,298.4218 73.2018,298.4218" id="Fill-31" fill="#F34040" mask="url(#mask-2)"></path>
                <path d="M73.2018,298.4218 L134.5508,298.4218 L134.5508,228.1848 L73.2018,228.1848 C54.0008,228.1848 38.4348,243.7508 38.4348,262.9518 L38.4348,263.6548 C38.4348,282.8568 54.0008,298.4218 73.2018,298.4218 Z" id="Stroke-32" stroke="#2B3554" stroke-width="4" stroke-linecap="round" stroke-linejoin="round" mask="url(#mask-2)"></path>
                <path d="M134.5505,242.6401 L134.5505,228.1851 L73.2015,228.1851 C61.5915,228.1851 51.3355,233.8931 45.0255,242.6401 L134.5505,242.6401 Z" id="Fill-33" fill="#FF8D80" mask="url(#mask-2)"></path>
                <path d="M73.2018,298.4218 L134.5508,298.4218 L134.5508,228.1848 L73.2018,228.1848 C54.0008,228.1848 38.4348,243.7508 38.4348,262.9518 L38.4348,263.6548 C38.4348,282.8568 54.0008,298.4218 73.2018,298.4218 Z" id="Stroke-34" stroke="#2B3554" stroke-width="4" stroke-linecap="round" stroke-linejoin="round" mask="url(#mask-2)"></path>
                <path d="M381.9211,234.8544 C381.9211,231.2874 379.0301,228.3964 375.4631,228.3964 L129.8111,228.3964 C115.5281,228.3964 98.7801,243.9154 98.7801,263.0594 L98.7801,263.7594 C98.7801,282.9024 115.5281,298.4214 129.8111,298.4214 L375.4631,298.4214 C379.0301,298.4214 381.9211,295.5304 381.9211,291.9644 L381.9211,291.8334 C381.9211,288.2674 379.0301,285.3754 375.4631,285.3754 L135.0491,285.3754 L135.0491,241.4424 L375.4631,241.4424 C379.0301,241.4424 381.9211,238.5514 381.9211,234.9844 L381.9211,234.8544 Z" id="Fill-35" fill="#FF8D80" mask="url(#mask-2)"></path>
                <path d="M381.9211,234.8544 C381.9211,231.2874 379.0301,228.3964 375.4631,228.3964 L129.8111,228.3964 C115.5281,228.3964 98.7801,243.9154 98.7801,263.0594 L98.7801,263.7594 C98.7801,282.9024 115.5281,298.4214 129.8111,298.4214 L375.4631,298.4214 C379.0301,298.4214 381.9211,295.5304 381.9211,291.9644 L381.9211,291.8334 C381.9211,288.2674 379.0301,285.3754 375.4631,285.3754 L135.0491,285.3754 L135.0491,241.4424 L375.4631,241.4424 C379.0301,241.4424 381.9211,238.5514 381.9211,234.9844 L381.9211,234.8544 Z" id="Stroke-36" stroke="#2B3554" stroke-width="4" stroke-linecap="round" stroke-linejoin="round" mask="url(#mask-2)"></path>
                <path d="M373.9884,285.3759 L135.0494,285.3759 C123.0394,285.3759 113.3024,275.6389 113.3024,263.6289 L113.3024,263.1889 C113.3024,251.1789 123.0394,241.4429 135.0494,241.4429 L373.9884,241.4429 L373.9224,241.6629 L373.9224,285.1559 L373.9884,285.3759 Z" id="Fill-37" fill="#FFFFFF" mask="url(#mask-2)"></path>
                <path d="M374.6945,252.1894 C374.6945,252.1894 370.7755,245.1154 373.9225,241.6624 L373.9885,241.4424 L135.0495,241.4424 C127.0575,241.4424 120.0925,245.7664 116.3125,252.1894" id="Fill-38" fill="#EFEFEF" mask="url(#mask-2)"></path>
                <line x1="2.0002" y1="298.4218" x2="446.3072" y2="298.4218" id="Stroke-39" stroke="#2B3554" stroke-width="4" stroke-linecap="round" stroke-linejoin="round" mask="url(#mask-2)"></line>
                <path d="M373.9884,285.3759 L135.0494,285.3759 C123.0394,285.3759 113.3024,275.6389 113.3024,263.6289 L113.3024,263.1889 C113.3024,251.1789 123.0394,241.4429 135.0494,241.4429 L373.9884,241.4429 L373.9224,241.6629 L373.9224,285.1559 L373.9884,285.3759 Z" id="Stroke-40" stroke="#2B3554" stroke-width="4" stroke-linecap="round" stroke-linejoin="round" mask="url(#mask-2)"></path>
                <path d="M134.1999,241.4858 C122.5859,241.9358 113.3029,251.4658 113.3029,263.1898 L113.3029,263.6288 C113.3029,275.3528 122.5859,284.8828 134.1999,285.3328 C116.5099,285.3328 116.5099,241.4858 134.1999,241.4858" id="Fill-41" fill="#ADC1D0" mask="url(#mask-2)"></path>
                <path d="M134.1999,241.4858 C122.5859,241.9358 113.3029,251.4658 113.3029,263.1898 L113.3029,263.6288 C113.3029,275.3528 122.5859,284.8828 134.1999,285.3328 C116.5099,285.3328 116.5099,241.4858 134.1999,241.4858 Z" id="Stroke-42" stroke="#2B3554" stroke-width="4" stroke-linecap="round" stroke-linejoin="round" mask="url(#mask-2)"></path>
                <g id="Group-45" mask="url(#mask-2)">
                    <g transform="translate(171.000000, 273.422000)">
                        <line x1="195.8102" y1="0.0706" x2="0.4102" y2="0.0706" id="Fill-43" stroke="none" fill="#FFFFFF" fill-rule="evenodd"></line>
                        <line x1="195.8102" y1="0.0706" x2="0.4102" y2="0.0706" id="Stroke-44" stroke="#2B3554" stroke-width="2.4" fill="none" stroke-linecap="round" stroke-linejoin="round"></line>
                    </g>
                </g>
                <line x1="364.152" y1="263.4091" x2="272.303" y2="263.4091" id="Stroke-46" stroke="#2B3554" stroke-width="2.4" stroke-linecap="round" stroke-linejoin="round" mask="url(#mask-2)"></line>
                <path d="M238.6662,227.4555 L82.9582,227.4555 C74.5332,227.4555 67.7032,220.6255 67.7032,212.2005 L67.7032,185.2615 C67.7032,176.8365 74.5332,170.0065 82.9582,170.0065 L238.6662,170.0065 L238.6662,227.4555 Z" id="Fill-47" fill="#FF8A32" mask="url(#mask-2)"></path>
                <path d="M238.6662,185.1283 L238.6662,170.0063 L82.9582,170.0063 C74.5782,170.0063 67.7832,176.7653 67.7102,185.1283 L238.6662,185.1283 Z" id="Fill-48" fill="#FFDE97" mask="url(#mask-2)"></path>
                <path d="M238.6662,227.4555 L82.9582,227.4555 C74.5332,227.4555 67.7032,220.6255 67.7032,212.2005 L67.7032,185.2615 C67.7032,176.8365 74.5332,170.0065 82.9582,170.0065 L238.6662,170.0065 L238.6662,227.4555 Z" id="Stroke-49" stroke="#2B3554" stroke-width="4" stroke-linecap="round" stroke-linejoin="round" mask="url(#mask-2)"></path>
                <polygon id="Fill-50" fill="#FFFFFF" mask="url(#mask-2)" points="139.673 216.077 358.308 216.077 358.308 178.872 139.673 178.872"></polygon>
                <path d="M357.152,195.6269 C357.502,190.1409 355.943,184.5509 358.308,178.8719 L139.673,178.8719 L139.673,195.6269 L357.152,195.6269 Z" id="Fill-51" fill="#EFEFEF" mask="url(#mask-2)"></path>
                <polygon id="Stroke-52" stroke="#2B3554" stroke-width="4" stroke-linecap="round" stroke-linejoin="round" mask="url(#mask-2)" points="139.673 216.077 358.308 216.077 358.308 178.872 139.673 178.872"></polygon>
                <path d="M367.403,176.9584 C367.403,172.9344 364.141,169.6714 360.116,169.6714 L145.509,169.6714 C137.56,169.6714 131.115,176.1164 131.115,184.0664 L131.115,212.7864 C131.115,220.7354 137.56,227.1804 145.509,227.1804 L360.116,227.1804 C364.141,227.1804 367.403,223.9174 367.403,219.8934 L367.403,219.7464 C367.403,215.7224 364.141,212.4594 360.116,212.4594 L151.458,212.4594 C148.765,212.4594 146.582,210.2774 146.582,207.5844 L146.582,189.2674 C146.582,186.5744 148.765,184.3924 151.458,184.3924 L360.116,184.3924 C364.141,184.3924 367.403,181.1294 367.403,177.1054 L367.403,176.9584 Z" id="Fill-53" fill="#00C5F8" mask="url(#mask-2)"></path>
                <path d="M367.403,176.9584 C367.403,172.9344 364.141,169.6714 360.116,169.6714 L145.509,169.6714 C137.56,169.6714 131.115,176.1164 131.115,184.0664 L131.115,212.7864 C131.115,220.7354 137.56,227.1804 145.509,227.1804 L360.116,227.1804 C364.141,227.1804 367.403,223.9174 367.403,219.8934 L367.403,219.7464 C367.403,215.7224 364.141,212.4594 360.116,212.4594 L151.458,212.4594 C148.765,212.4594 146.582,210.2774 146.582,207.5844 L146.582,189.2674 C146.582,186.5744 148.765,184.3924 151.458,184.3924 L360.116,184.3924 C364.141,184.3924 367.403,181.1294 367.403,177.1054 L367.403,176.9584 Z" id="Fill-54" fill="#FFDE97" mask="url(#mask-2)"></path>
                <path d="M367.403,176.9584 C367.403,172.9344 364.141,169.6714 360.116,169.6714 L145.509,169.6714 C137.56,169.6714 131.115,176.1164 131.115,184.0664 L131.115,212.7864 C131.115,220.7354 137.56,227.1804 145.509,227.1804 L360.116,227.1804 C364.141,227.1804 367.403,223.9174 367.403,219.8934 L367.403,219.7464 C367.403,215.7224 364.141,212.4594 360.116,212.4594 L151.458,212.4594 C148.765,212.4594 146.582,210.2774 146.582,207.5844 L146.582,189.2674 C146.582,186.5744 148.765,184.3924 151.458,184.3924 L360.116,184.3924 C364.141,184.3924 367.403,181.1294 367.403,177.1054 L367.403,176.9584 Z" id="Stroke-55" stroke="#40515D" stroke-width="4" stroke-linecap="round" stroke-linejoin="round" mask="url(#mask-2)"></path>
                <polygon id="Fill-56" fill="#FF6161" mask="url(#mask-2)" points="170.884 218.351 186.812 218.351 186.812 197.107 170.884 197.107"></polygon>
                <polygon id="Stroke-57" stroke="#2B3554" stroke-width="4" stroke-linecap="round" stroke-linejoin="round" mask="url(#mask-2)" points="170.884 218.351 186.812 218.351 186.812 197.107 170.884 197.107"></polygon>
                <g id="Group-60" mask="url(#mask-2)">
                    <g transform="translate(170.000000, 195.422000)">
                        <line x1="0.8844" y1="0.9627" x2="66.7244" y2="0.9627" id="Fill-58" stroke="none" fill="#00AC8F" fill-rule="evenodd"></line>
                        <line x1="0.8844" y1="0.9627" x2="66.7244" y2="0.9627" id="Stroke-59" stroke="#2B3554" stroke-width="4" fill="none" stroke-linecap="round" stroke-linejoin="round"></line>
                    </g>
                </g>
                <path d="M343.2086,104.3818 C338.2016,95.7798 330.3776,89.2278 320.4246,89.2278 L83.6486,89.2278 L83.6486,99.5848 L300.9376,99.5848 C308.3336,99.5848 315.0906,103.9898 317.8656,110.8448 C322.6756,122.7248 321.8286,136.6198 317.6246,147.6438 C314.9096,154.7628 308.0866,159.4698 300.4686,159.4698 L83.6486,159.4698 L83.6486,169.8278 L319.7936,169.8268 C330.0476,169.8268 339.7806,163.6838 342.8836,153.9108 C348.8996,134.9578 349.4796,115.1538 343.2086,104.3818" id="Fill-61" fill="#00BCFB" mask="url(#mask-2)"></path>
                <path d="M343.2086,104.3818 C338.2016,95.7798 330.3776,89.2278 320.4246,89.2278 L83.6486,89.2278 L83.6486,99.5848 L300.9376,99.5848 C308.3336,99.5848 315.0906,103.9898 317.8656,110.8448 C322.6756,122.7248 321.8286,136.6198 317.6246,147.6438 C314.9096,154.7628 308.0866,159.4698 300.4686,159.4698 L83.6486,159.4698 L83.6486,169.8278 L319.7936,169.8268 C330.0476,169.8268 339.7806,163.6838 342.8836,153.9108 C348.8996,134.9578 349.4796,115.1538 343.2086,104.3818 Z" id="Stroke-62" stroke="#2B3554" stroke-width="4" mask="url(#mask-2)"></path>
                <polygon id="Fill-63" fill="#0091DE" mask="url(#mask-2)" points="83.648 169.828 161.16 169.828 161.16 159.47 83.648 159.47"></polygon>
                <polygon id="Stroke-64" stroke="#2B3554" stroke-width="4" stroke-linecap="round" stroke-linejoin="round" mask="url(#mask-2)" points="83.648 169.828 161.16 169.828 161.16 159.47 83.648 159.47"></polygon>
                <polygon id="Fill-65" fill="#0091DE" mask="url(#mask-2)" points="83.648 99.585 161.16 99.585 161.16 89.227 83.648 89.227"></polygon>
                <polygon id="Stroke-66" stroke="#2B3554" stroke-width="4" stroke-linecap="round" stroke-linejoin="round" mask="url(#mask-2)" points="83.648 99.585 161.16 99.585 161.16 89.227 83.648 89.227"></polygon>
                <path d="M96.5343,99.5849 L317.9043,99.5849 C325.2993,99.5849 332.0563,103.9899 334.8313,110.8449 C339.6413,122.7249 338.7943,136.6199 334.5903,147.6439 C331.8753,154.7629 325.0533,159.4699 317.4343,159.4699 L96.5343,159.4699 L96.5343,99.5849 Z" id="Fill-67" fill="#FFFFFF" mask="url(#mask-2)"></path>
                <path d="M333.4333,108.1201 C330.1433,102.8491 324.2633,99.5851 317.9043,99.5851 L175.0293,99.5851 L175.0293,108.1201 L333.4333,108.1201 Z" id="Fill-68" fill="#EFEFEF" mask="url(#mask-2)"></path>
                <polygon id="Fill-69" fill="#69CDF1" mask="url(#mask-2)" points="96.534 159.47 170.76 159.47 170.76 99.585 96.534 99.585"></polygon>
                <polygon id="Stroke-70" stroke="#2B3554" stroke-width="4" stroke-linecap="round" stroke-linejoin="round" mask="url(#mask-2)" points="96.534 159.47 170.76 159.47 170.76 99.585 96.534 99.585"></polygon>
                <path d="M334.8322,110.8447 C332.3502,104.7147 326.6802,100.5527 320.2192,99.7407 C333.4132,99.7407 333.4132,159.2567 320.2192,159.2567 C326.6782,158.2667 332.2112,153.8817 334.5902,147.6437 C338.7942,136.6197 339.6422,122.7247 334.8322,110.8447" id="Fill-71" fill="#ADC1D0" mask="url(#mask-2)"></path>
                <path d="M334.8322,110.8447 C332.3502,104.7147 326.6802,100.5527 320.2192,99.7407 C333.4132,99.7407 333.4132,159.2567 320.2192,159.2567 C326.6782,158.2667 332.2112,153.8817 334.5902,147.6437 C338.7942,136.6197 339.6422,122.7247 334.8322,110.8447 Z" id="Stroke-72" stroke="#2B3554" stroke-width="4" stroke-linecap="round" stroke-linejoin="round" mask="url(#mask-2)"></path>
                <g id="Group-75" mask="url(#mask-2)">
                    <g transform="translate(171.000000, 118.422000)">
                        <line x1="0.7214" y1="0.8387" x2="92.2744" y2="0.8387" id="Fill-73" stroke="none" fill="#FFFFFF" fill-rule="evenodd"></line>
                        <line x1="0.7214" y1="0.8387" x2="92.2744" y2="0.8387" id="Stroke-74" stroke="#2B3554" stroke-width="2.4" fill="none" stroke-linecap="round" stroke-linejoin="round"></line>
                    </g>
                </g>
                <g id="Group-78" mask="url(#mask-2)">
                    <g transform="translate(171.000000, 128.422000)">
                        <line x1="0.7214" y1="0.1653" x2="46.4984" y2="0.1653" id="Fill-76" stroke="none" fill="#FFFFFF" fill-rule="evenodd"></line>
                        <line x1="0.7214" y1="0.1653" x2="46.4984" y2="0.1653" id="Stroke-77" stroke="#2B3554" stroke-width="2.4" fill="none" stroke-linecap="round" stroke-linejoin="round"></line>
                    </g>
                </g>
                <g id="Group-81" mask="url(#mask-2)">
                    <g transform="translate(170.000000, 141.422000)">
                        <line x1="0.425" y1="0.8909" x2="70.185" y2="0.8909" id="Fill-79" stroke="none" fill="#FFFFFF" fill-rule="evenodd"></line>
                        <line x1="0.425" y1="0.8909" x2="70.185" y2="0.8909" id="Stroke-80" stroke="#2B3554" stroke-width="2.4" fill="none" stroke-linecap="round" stroke-linejoin="round"></line>
                    </g>
                </g>
                <line x1="96.5343" y1="120.2773" x2="120.9513" y2="120.2773" id="Stroke-82" stroke="#2B3554" stroke-width="2.4" stroke-linecap="round" stroke-linejoin="round" mask="url(#mask-2)"></line>
                <line x1="96.5343" y1="129.5273" x2="111.7163" y2="129.5273" id="Stroke-83" stroke="#2B3554" stroke-width="2.4" stroke-linecap="round" stroke-linejoin="round" mask="url(#mask-2)"></line>
                <path d="M96.5343,99.5849 L317.9043,99.5849 C325.2993,99.5849 332.0563,103.9899 334.8313,110.8449 C339.6413,122.7249 338.7943,136.6199 334.5903,147.6439 C331.8753,154.7629 325.0533,159.4699 317.4343,159.4699 L96.5343,159.4699 L96.5343,99.5849 Z" id="Stroke-84" stroke="#2B3554" stroke-width="4" stroke-linecap="round" stroke-linejoin="round" mask="url(#mask-2)"></path>
            </g>
        </g>
    </g>
</svg>